<?xml version="1.0" encoding="UTF-8"?>
<svg width="180px" height="205px" viewBox="0 0 180 205" version="1.1" xmlns="http://www.w3.org/2000/svg" xmlns:xlink="http://www.w3.org/1999/xlink">
    <!-- Generator: sketchtool 47 (45396) - http://www.bohemiancoding.com/sketch -->
    <title>66DAC9A3-D6D2-483F-9657-790ADA207538</title>
    <desc>Created with sketchtool.</desc>
    <defs></defs>
    <g id="Page-1" stroke="none" stroke-width="1" fill="none" fill-rule="evenodd">
        <g id="main-copy" transform="translate(-950.000000, -883.000000)" fill="#7ED321">
            <g id="Group-7" transform="translate(950.000000, 883.000000)">
                <g id="flaticon1519065091-svg" transform="translate(90.000000, 102.500000) scale(-1, 1) translate(-90.000000, -102.500000) " fill-rule="nonzero">
                    <path d="M21.507277,141 L21.4781689,141 C20.6530663,141 20,141.670875 20,142.5 C20,143.329125 20.6836671,144 21.507277,144 C22.3320065,144 23,143.329125 23,142.5 C23,141.670875 22.3320065,141 21.507277,141 Z" id="Shape"></path>
                    <path d="M27.507277,141 L27.4781689,141 C26.6530663,141 26,141.670875 26,142.5 C26,143.329125 26.6836671,144 27.507277,144 C28.3320065,144 29,143.329125 29,142.5 C29,141.670875 28.3320065,141 27.507277,141 Z" id="Shape"></path>
                    <path d="M34.507277,141 L34.4781689,141 C33.6530663,141 33,141.670875 33,142.5 C33,143.329125 33.6836671,144 34.507277,144 C35.3323796,144 36,143.329125 36,142.5 C36,141.670875 35.3320065,141 34.507277,141 Z" id="Shape"></path>
                    <path d="M40.507277,141 L40.4781689,141 C39.6530663,141 39,141.670875 39,142.5 C39,143.329125 39.6836671,144 40.507277,144 C41.3323796,144 42,143.329125 42,142.5 C42,141.670875 41.3320065,141 40.507277,141 Z" id="Shape"></path>
                    <path d="M46.507277,141 L46.4781689,141 C45.6530663,141 45,141.670875 45,142.5 C45,143.329125 45.6836671,144 46.507277,144 C47.3323796,144 48,143.329125 48,142.5 C48,141.670875 47.3320065,141 46.507277,141 Z" id="Shape"></path>
                    <path d="M124.507465,29 L124.475367,29 C123.653148,29 123,29.67125 123,30.5 C123,31.329125 123.682259,32 124.507465,32 C125.329311,32 126,31.329125 126,30.5 C126,29.670875 125.329311,29 124.507465,29 Z" id="Shape"></path>
                    <path d="M114.507277,29 L114.475183,29 C113.653066,29 113,29.67125 113,30.5 C113,31.329125 113.682174,32 114.507277,32 C115.329394,32 116,31.329125 116,30.5 C116,29.670875 115.329394,29 114.507277,29 Z" id="Shape"></path>
                    <path d="M178.39276,202 L1.60723972,202 C0.718837966,202 0,202.670875 0,203.5 C0,204.329125 0.718837966,205 1.60723972,205 L178.392358,205 C179.28076,205 180,204.329125 180,203.5 C180,202.670875 179.281162,202 178.39276,202 Z" id="Shape"></path>
                    <path d="M7.4999375,196 C3.36464019,196 0,199.36328 0,203.499875 C0,204.329069 0.670902954,205 1.5000625,205 C2.32884704,205 2.99974999,204.329069 2.99974999,203.499875 C2.99974999,201.018668 5.0184591,198.999875 7.4999375,198.999875 C8.32909705,198.999875 9,198.328944 9,197.49975 C9,196.670931 8.32872203,196 7.4999375,196 Z" id="Shape"></path>
                    <path d="M172.49975,196 C171.670931,196 171,196.670931 171,197.49975 C171,198.328944 171.670931,198.999875 172.49975,198.999875 C174.981332,198.999875 176.99975,201.018668 176.99975,203.499875 C176.99975,204.329069 177.670681,205 178.499875,205 C179.329069,205 180,204.329069 180,203.499875 C180,199.36328 176.636345,196 172.49975,196 Z" id="Shape"></path>
                    <path d="M172.394134,196 L8.60586574,196 C7.71822345,196 7,196.670959 7,197.499812 C7,198.329041 7.71822345,199 8.60586574,199 L172.393733,199 C173.281375,199 173.999599,198.329041 174,197.499812 C174,196.670959 173.281777,196 172.394134,196 Z" id="Shape"></path>
                    <path d="M1.5,23 C0.670875,23 0,23.7119723 0,24.5909995 L0,56.4090005 C0,57.2884255 0.670875,58 1.5,58 C2.32875,58 2.999625,57.2884255 3,56.4090005 L3,24.5909995 C3,23.7115745 2.32875,23 1.5,23 Z" id="Shape"></path>
                    <path d="M23.4374023,0 C10.5131571,0 0,10.5131571 0,23.4374023 C0,24.3011282 0.698871804,25 1.56259766,25 C2.42593287,25 3.12480468,24.3011282 3.12480468,23.437793 C3.12480468,12.2378742 12.2374836,3.12519532 23.4374023,3.12519532 C24.3011282,3.12519532 25,2.42593287 25,1.56259766 C25,0.698871804 24.3011282,0 23.4374023,0 Z" id="Shape"></path>
                    <path d="M149.500188,23 C148.670959,23 148,23.7119723 148,24.5909995 L148,56.4090005 C148,57.2884255 148.670959,58 149.500188,58 C150.329041,58 151,57.2884255 151,56.4090005 L151,24.5909995 C151,23.7115745 150.329041,23 149.500188,23 Z" id="Shape"></path>
                    <path d="M126.562598,0 C125.698872,0 125,0.698860884 125,1.56257325 C125,2.42628561 125.698872,3.12514649 126.562598,3.12514649 C137.762516,3.12514649 146.875195,12.237683 146.875195,23.4374268 C146.875195,24.3011391 147.574067,25 148.437793,25 C149.301128,25 150,24.3011391 150,23.4370361 C150,10.5129928 139.486843,0 126.562598,0 Z" id="Shape"></path>
                    <path d="M149.39392,55 L1.60648125,55 C0.718498738,55 0,55.67125 0,56.5 C0,57.329125 0.718498738,58 1.60648125,58 L149.393519,58 C150.2811,58 150.999598,57.329125 151,56.5 C151,55.670875 150.281501,55 149.39392,55 Z" id="Shape"></path>
                    <path d="M127.393842,0 L24.6061579,0 C23.7183541,0 23,0.670875 23,1.5 C23,2.329125 23.7187557,3 24.6061579,3 L127.393842,3 C128.281646,3 129,2.329125 129,1.5 C129,0.670875 128.281646,0 127.393842,0 Z" id="Shape"></path>
                    <path d="M94.4374268,187.874805 C83.237683,187.874805 74.1251465,178.762516 74.1251465,167.562598 C74.1251465,166.698872 73.425895,166 72.5625732,166 C71.6988609,166 71,166.698872 71,167.562598 C71,180.486843 81.5129928,191 94.4370361,191 C95.3007485,191 96,190.301128 96,189.437402 C96,188.573676 95.3011391,187.874805 94.4374268,187.874805 Z" id="Shape"></path>
                    <path d="M174.500188,105 C173.670959,105 173,105.715645 173,106.5997 L173,167.3999 C173,168.284355 173.670959,169 174.500188,169 C175.329041,169 176,168.284355 176,167.3999 L176,106.5997 C176,105.715645 175.329041,105 174.500188,105 Z" id="Shape"></path>
                    <path d="M174.437793,166 C173.574067,166 172.875195,166.698872 172.875195,167.562598 C172.875195,178.762516 163.762516,187.874805 152.562598,187.874805 C151.698872,187.874805 151,188.573676 151,189.437402 C151,190.301128 151.698872,191 152.562598,191 C165.486843,191 176,180.486843 176,167.562598 C176,166.698872 175.301128,166 174.437793,166 Z" id="Shape"></path>
                    <path d="M152.394631,188 L94.6049674,188 C93.7180012,188 93,188.670875 93,189.5 C93,190.329125 93.7180012,191 94.6049674,191 L152.394631,191 C153.281999,191 154,190.329125 154,189.5 C154,188.670875 153.281999,188 152.394631,188 Z" id="Shape"></path>
                    <path d="M178.399903,105 L69.6000971,105 C68.7156434,105 68,105.670959 68,106.499812 C68,107.329041 68.7160435,108 69.6000971,108 L178.399903,108 C179.284357,108 180,107.329041 180,106.499812 C180,105.670959 179.284357,105 178.399903,105 Z" id="Shape"></path>
                    <path d="M56.5,61 C55.670875,61 55,61.7204098 55,62.6098543 L55,191.390146 C55,192.279993 55.67125,193 56.5,193 C57.329125,193 58,192.279993 58,191.390146 L58,62.6098543 C58,61.7200073 57.329125,61 56.5,61 Z" id="Shape"></path>
                    <path d="M11.5,61 C10.670875,61 10,61.7200073 10,62.6098543 L10,191.390146 C10,192.279993 10.67125,193 11.5,193 C12.329125,193 13,192.279993 13,191.390146 L13,62.6098543 C13,61.7200073 12.329125,61 11.5,61 Z" id="Shape"></path>
                    <path d="M72.5,105 C71.670875,105 71,106.490937 71,108.332731 L71,161.666435 C71,163.509063 71.670875,165 72.5,165 C73.32875,165 73.999625,163.509063 74,161.666435 L74,108.332731 C74,106.490937 73.32875,105 72.5,105 Z" id="Shape"></path>
                    <path d="M143.395251,19 L8.60474913,19 C7.71772405,19 7,19.670875 7,20.5 C7,21.329125 7.71772405,22 8.60474913,22 L143.395251,22 C144.282276,22 145,21.329125 145,20.5 C145,19.670875 144.282276,19 143.395251,19 Z" id="Shape"></path>
                    <path d="M143.395251,39 L8.60474913,39 C7.71772405,39 7,39.670875 7,40.5 C7,41.329125 7.71772405,42 8.60474913,42 L143.395251,42 C144.282276,42 145,41.329125 145,40.5 C145,39.670875 144.282276,39 143.395251,39 Z" id="Shape"></path>
                    <path d="M21.39992,29 L8.60008,29 C7.71563578,29 7,29.67125 7,30.5 C7,31.329125 7.71563578,32 8.60008,32 L21.39992,32 C22.2839642,32 22.9996,31.329125 23,30.5 C23,29.670875 22.2839642,29 21.39992,29 Z" id="Shape"></path>
                    <path d="M24.4998125,25 C22.0187091,25 20,27.0187091 20,29.4998125 C20,31.9816659 22.0187091,34 24.4998125,34 C26.9812909,34 28.999625,31.9816659 29,29.4998125 C29,27.0187091 26.9812909,25 24.4998125,25 Z M24.4998125,31.00025 C23.672153,31.00025 22.99975,30.3263469 22.99975,29.5001875 C22.99975,28.6740281 23.672153,28.000125 24.4998125,28.000125 C25.327472,28.000125 25.999875,28.6740281 25.999875,29.5001875 C25.999875,30.3263469 25.327472,31.00025 24.4998125,31.00025 Z" id="Shape"></path>
                    <path d="M136.5,25 C134.018418,25 132,27.0187091 132,29.4998125 C132,31.9816659 134.018418,34 136.5,34 C138.981207,34 141,31.9816659 141,29.4998125 C141,27.0187091 138.981207,25 136.5,25 Z M136.5,31.00025 C135.673806,31.00025 134.999875,30.3263469 134.999875,29.5001875 C134.999875,28.6740281 135.673806,28.000125 136.5,28.000125 C137.325819,28.000125 137.99975,28.6740281 137.99975,29.5001875 C137.99975,30.3263469 137.325819,31.00025 136.5,31.00025 Z" id="Shape"></path>
                    <path d="M37.3748984,29 L27.6251016,29 C26.7268267,29 26,29.67125 26,30.5 C26,31.329125 26.7268267,32 27.6251016,32 L37.3748984,32 C38.2731733,32 39,31.329125 39,30.5 C39,29.670875 38.2731733,29 37.3748984,29 Z" id="Shape"></path>
                    <path d="M156.25,19 L152.75,19 C151.782687,19 151,19.670875 151,20.5 C151,21.329125 151.782687,22 152.75,22 L156.25,22 C157.217312,22 158,21.329125 158,20.5 C158,19.670875 157.217312,19 156.25,19 Z" id="Shape"></path>
                    <path d="M156.5,19 C155.670875,19 155,19.6709309 155,20.500125 L155,26.499875 C155,27.3290691 155.670875,28 156.5,28 C157.329125,28 158,27.3290691 158,26.50025 L158,20.500125 C158,19.6709309 157.329125,19 156.5,19 Z" id="Shape"></path>
                    <path d="M156.25,25 L152.75,25 C151.782687,25 151,25.670875 151,26.5 C151,27.329125 151.782687,28 152.75,28 L156.25,28 C157.217312,28 158,27.329125 158,26.5 C158,25.670875 157.217312,25 156.25,25 Z" id="Shape"></path>
                    <path d="M72.5,157 C71.670875,157 71,157.726827 71,158.624695 L71,168.374898 C71,169.273173 71.670875,170 72.5,170 C73.32875,170 73.999625,169.273173 74,168.374898 L74,158.624695 C74,157.726827 73.32875,157 72.5,157 Z" id="Shape"></path>
                    <path d="M136.389538,89 L110.610865,89 C109.720459,89 109,89.670875 109,90.5 C109,91.329125 109.720459,92 110.610865,92 L136.389538,92 C137.279541,92 138,91.329125 138,90.5 C138,89.670875 137.279541,89 136.389538,89 Z" id="Shape"></path>
                    <path d="M136.389538,84 L110.610865,84 C109.720459,84 109,84.670875 109,85.5 C109,86.329125 109.720459,87 110.610865,87 L136.389538,87 C137.279541,87 138,86.329125 138,85.5 C138,84.670875 137.279541,84 136.389538,84 Z" id="Shape"></path>
                    <path d="M136.389538,96 L110.610865,96 C109.720459,96 109,96.670875 109,97.5 C109,98.329125 109.720459,99 110.610865,99 L136.389538,99 C137.279541,99 138,98.329125 138,97.5 C138,96.670875 137.279541,96 136.389538,96 Z" id="Shape"></path>
                    <path d="M110.500188,96 C109.670959,96 109,96.670903 109,97.5000625 L109,103.499937 C109,104.329097 109.670959,105 110.500188,105 C111.329041,105 112,104.329097 112,103.499937 L112,97.5000625 C112,96.670903 111.329041,96 110.500188,96 Z" id="Shape"></path>
                    <path d="M117.5,96 C116.670875,96 116,96.670903 116,97.5000625 L116,103.499937 C116,104.329097 116.670875,105 117.5,105 C118.329125,105 119,104.329097 119,103.499937 L119,97.5000625 C119,96.670903 118.329125,96 117.5,96 Z" id="Shape"></path>
                    <path d="M124.500188,96 C123.670959,96 123,96.670903 123,97.5000625 L123,103.499937 C123,104.329097 123.670959,105 124.500188,105 C125.329041,105 126,104.329097 126,103.499937 L126,97.5000625 C126,96.670903 125.329041,96 124.500188,96 Z" id="Shape"></path>
                    <path d="M120.499812,77 C119.670959,77 119,77.670903 119,78.5000625 L119,84.4999375 C119,85.329097 119.670959,86 120.499812,86 C121.329041,86 122,85.329097 122,84.4999375 L122,78.5000625 C122,77.670903 121.329041,77 120.499812,77 Z" id="Shape"></path>
                    <path d="M126.5,77 C125.670875,77 125,77.670903 125,78.5000625 L125,84.4999375 C125,85.329097 125.670875,86 126.5,86 C127.329125,86 128,85.329097 128,84.4999375 L128,78.5000625 C128,77.670903 127.329125,77 126.5,77 Z" id="Shape"></path>
                    <path d="M130.5,96 C129.670875,96 129,96.670903 129,97.5000625 L129,103.499937 C129,104.329097 129.670875,105 130.5,105 C131.329125,105 132,104.329097 132,103.499937 L132,97.5000625 C132,96.670903 131.329125,96 130.5,96 Z" id="Shape"></path>
                    <path d="M136.500188,96 C135.670959,96 135,96.670903 135,97.5000625 L135,103.499937 C135,104.329097 135.670959,105 136.500188,105 C137.329041,105 138,104.329097 138,103.499937 L138,97.5000625 C138,96.670903 137.329041,96 136.500188,96 Z" id="Shape"></path>
                    <path d="M118.548875,93.4033269 C118.009625,92.8607498 116.99,92.8607498 116.418875,93.4327574 C116.14925,93.7361176 116,94.0987161 116,94.4907451 C116,94.882774 116.14925,95.274803 116.448125,95.5460916 C116.72075,95.8498291 117.110375,96 117.5,96 C117.889625,96 118.27925,95.8498291 118.578125,95.5460916 C118.85075,95.274803 119,94.882774 119,94.4907451 C119,94.0987161 118.85075,93.7364949 118.548875,93.4033269 Z" id="Shape"></path>
                    <path d="M110.500188,84 C109.670959,84 109,84.670903 109,85.5000625 L109,91.4999375 C109,92.329097 109.670959,93 110.500188,93 C111.329041,93 112,92.329097 112,91.4999375 L112,85.5000625 C112,84.670903 111.329041,84 110.500188,84 Z" id="Shape"></path>
                    <path d="M136.500188,84 C135.670959,84 135,84.670903 135,85.5000625 L135,91.4999375 C135,92.329097 135.670959,93 136.500188,93 C137.329041,93 138,92.329097 138,91.4999375 L138,85.5000625 C138,84.670903 137.329041,84 136.500188,84 Z" id="Shape"></path>
                    <path d="M131.548875,93.4295429 C131.009625,92.856819 129.99,92.856819 129.448125,93.4295429 C129.14925,93.7038156 129,94.0963355 129,94.4888553 C129,94.8813751 129.14925,95.273895 129.448125,95.5455232 C129.72075,95.8496411 130.110375,96 130.5,96 C130.889625,96 131.27925,95.8496411 131.548875,95.5455232 C131.85075,95.273895 132,94.8813751 132,94.4888553 C132,94.0963355 131.85075,93.7041934 131.548875,93.4295429 Z" id="Shape"></path>
                    <path d="M130.39992,73 L117.60008,73 C116.715636,73 116,73.67125 116,74.5 C116,75.329125 116.715636,76 117.60008,76 L130.39992,76 C131.284364,76 132,75.329125 132,74.5 C132,73.670875 131.284364,73 130.39992,73 Z" id="Shape"></path>
                    <path d="M130.5,68 C129.670875,68 129,68.671278 129,69.5000625 L129,75.4999375 C129,76.329097 129.670875,77 130.5,77 C131.329125,77 132,76.329097 132,75.4999375 L132,69.5000625 C132,68.670903 131.329125,68 130.5,68 Z" id="Shape"></path>
                    <path d="M117.5,71 C116.670875,71 116,71.7827364 116,72.7501094 L116,76.2498906 C116,77.2172636 116.670875,78 117.5,78 C118.329125,78 119,77.2172636 119,76.2498906 L119,72.7501094 C119,71.7827364 118.329125,71 117.5,71 Z" id="Shape"></path>
                    <path d="M117.388799,71 L91.6112006,71 C90.7206095,71 90,71.670875 90,72.5 C90,73.329125 90.7206095,74 91.6112006,74 L117.388799,74 C118.279391,74 119,73.329125 119,72.5 C119,71.670875 118.279391,71 117.388799,71 Z" id="Shape"></path>
                    <path d="M93.4874367,72.0126566 L89.987218,68.5125473 C89.3033627,67.8291509 88.195981,67.8291509 87.5125633,68.5125473 C86.8291456,69.1959436 86.8291456,70.3037282 87.5125633,70.9871246 L91.012782,74.487234 C91.3544909,74.8289322 91.8025189,75 92.2501094,75 C92.6976999,75 93.1457279,74.8293697 93.4874367,74.487234 C94.1708544,73.8038376 94.1708544,72.696053 93.4874367,72.0126566 Z" id="Shape"></path>
                    <path d="M142.5,57 C141.670875,57 141,57.670903 141,58.5000625 L141,64.4999375 C141,65.329097 141.670875,66 142.5,66 C143.329125,66 144,65.329097 144,64.4999375 L144,58.5000625 C144,57.670903 143.329125,57 142.5,57 Z" id="Shape"></path>
                    <path d="M142.404667,64 L78.5953331,64 C77.7135127,64 77,64.670875 77,65.5 C77,66.329125 77.7135127,67 78.5953331,67 L142.404667,67 C143.286487,67 144,66.329125 144,65.5 C144,64.670875 143.286487,64 142.404667,64 Z" id="Shape"></path>
                    <path d="M79.5606509,63.43938 L73.5605259,57.4394737 C72.9747271,56.8536963 72.0251479,56.8533213 71.4393491,57.4394737 C70.8535503,58.0256262 70.8535503,58.9747957 71.4393491,59.5605732 L77.4394741,65.5604794 C77.7323735,65.8533681 78.1164055,66 78.5000625,66 C78.8837195,66 79.2673764,65.8537431 79.5606509,65.5604794 C80.1464497,64.9747019 80.1464497,64.0251574 79.5606509,63.43938 Z" id="Shape"></path>
                    <path d="M47.3887994,105 L21.6112006,105 C20.7206095,105 20,105.708205 20,106.583069 L20,122.416931 C20,123.291795 20.7206095,124 21.6112006,124 L47.3887994,124 C48.2789877,124 48.9995972,123.291795 49,122.416931 L49,106.583069 C49,105.708205 48.2789877,105 47.3887994,105 Z M45.7775988,120.833465 L23.2219984,120.833465 L23.2219984,108.166535 L45.7775988,108.166535 L45.7775988,120.833465 L45.7775988,120.833465 Z" id="Shape"></path>
                    <path d="M31.3748984,132 L21.6251016,132 C20.7268267,132 20,132.670959 20,133.499812 C20,134.329041 20.7268267,135 21.6251016,135 L31.3748984,135 C32.2731733,135 33,134.329041 33,133.499812 C33,132.670959 32.2731733,132 31.3748984,132 Z" id="Shape"></path>
                    <path d="M47.3749492,132 L37.6250508,132 C36.726804,132 36,132.670959 36,133.499812 C36,134.329041 36.7272102,135 37.6250508,135 L47.3749492,135 C48.2727898,135 48.9995937,134.329041 49,133.499812 C49,132.670959 48.2727898,132 47.3749492,132 Z" id="Shape"></path>
                    <path d="M168.5,112 C167.670875,112 167,112.708185 167,113.583421 L167,167.416579 C167,168.291815 167.670875,169 168.5,169 C169.329125,169 170,168.291815 170,167.416579 L170,113.583421 C170,112.708185 169.329125,112 168.5,112 Z" id="Shape"></path>
                    <path d="M168.416601,166 C167.541377,166 166.833201,166.70819 166.833201,167.583432 C166.833201,175.441215 160.441414,181.833531 152.583399,181.833531 C151.708175,181.833531 151,182.541721 151,183.416568 C151,184.29181 151.708175,185 152.583399,185 C162.185529,185 170,177.185366 170,167.583432 C170,166.70819 169.291825,166 168.416601,166 Z" id="Shape"></path>
                </g>
                <path d="M51.4350781,143.564922 C47.8464531,139.976371 43.0750781,138 38,138 C32.9249219,138 28.1535469,139.976371 24.5649219,143.564922 C20.9762969,147.153473 19,151.924922 19,157 C19,162.075078 20.9763711,166.846453 24.5649219,170.435078 C28.1534727,174.023703 32.9249219,176 38,176 C43.0750781,176 47.8464531,174.023629 51.4350781,170.435078 C55.0237031,166.846527 57,162.075078 57,157 C57,151.924922 55.0236289,147.153547 51.4350781,143.564922 Z M37.3158346,171.950688 C37.1291349,172.038874 37,172.228865 37,172.449092 C37,172.753413 37.2465865,173 37.5509082,173 C41.9445851,173 46.0753686,171.289026 49.1821972,168.182197 C52.2890259,165.075369 54,160.944585 54,156.550908 C54,156.246587 53.75334,156 53.4490918,156 C53.2288681,156 53.0388789,156.129131 52.9506913,156.315827 C52.9994882,156.907568 53.0122932,157.505144 52.9880986,158.105605 C52.8412413,161.749787 51.339219,165.17795 48.7585314,167.758642 C46.1778438,170.339259 42.7496874,171.841359 39.105511,171.988217 C38.9083672,171.996221 38.7113745,172.000147 38.5150614,171.999996 C38.1132816,171.999996 37.7132414,171.983458 37.3158346,171.950688 Z M50.7279419,169.727942 C47.3282573,173.127701 42.8080166,175 38,175 C33.1919834,175 28.6717427,173.127701 25.2720581,169.727942 C21.8723734,166.328183 20,161.808017 20,157 C20,152.191983 21.8722988,147.671743 25.2720581,144.272058 C28.6718174,140.872373 33.1919834,139 38,139 C42.8080166,139 47.3282573,140.872299 50.7279419,144.272058 C54.1276266,147.671817 56,152.191983 56,157 C56,161.808017 54.1277012,166.328257 50.7279419,169.727942 Z M37.4490918,140 C33.0554149,140 28.9246314,141.710974 25.8178028,144.817803 C22.7109741,147.924631 21,152.055415 21,156.449092 C21,156.753413 21.2465865,157 21.5509082,157 C21.85523,157 22.1018165,156.753413 22.1018165,156.449092 C22.1018165,147.986627 28.986627,141.101816 37.4490918,141.101816 C37.7534135,141.101816 38,140.85523 38,140.550908 C38,140.246587 37.7534135,140 37.4490918,140 Z M47.7982624,146.392148 C45.0338042,144.066464 41.5149018,142.865114 37.8944453,143.012046 C34.2502804,143.158826 30.8221347,144.660909 28.2414552,147.241572 C25.6608512,149.822235 24.1588337,153.250358 24.0119013,156.8945 C23.8659505,160.516669 25.0664017,164.033888 27.3920259,166.798252 C27.5039996,166.931442 27.6642208,167 27.8256501,167 C27.9543104,167 28.0837256,166.956358 28.1898854,166.867037 C28.4292357,166.665667 28.4599662,166.308531 28.2586703,166.069183 C26.1153903,163.521364 25.0090936,160.279283 25.1436432,156.940029 C25.2789478,153.581143 26.6635553,150.421211 29.0424104,148.042447 C31.42119,145.663607 34.581067,144.279008 37.9400502,144.143629 C41.2786472,144.009458 44.521353,145.11537 47.0691878,147.258787 C47.3084626,147.460233 47.6657515,147.429351 47.8670473,147.190003 C48.0683432,146.950654 48.0376127,146.593518 47.7982624,146.392148 Z M37.3158346,171.950688 C34.3379307,171.705128 31.507888,170.548103 29.2017382,168.608 C28.9623871,168.406628 28.9316566,168.049488 29.1329531,167.810137 C29.3343251,167.570785 29.6915395,167.539904 29.9308151,167.741352 C32.4785825,169.884793 35.7199394,170.992077 39.0599814,170.85647 C42.4189752,170.721164 45.5788622,169.33655 47.9576492,166.957683 C50.3365118,164.578892 51.7211236,161.418924 51.8565042,158.059999 C51.9909787,154.720782 50.8846785,151.478589 48.7413163,148.930817 C48.5400198,148.691465 48.5707503,148.334326 48.8101014,148.132953 C49.049528,147.931656 49.4066669,147.962387 49.6079634,148.201739 C51.5480707,150.507876 52.7051265,153.337958 52.9506913,156.315827 C52.9170146,156.387121 52.8981835,156.46681 52.8981835,156.550908 C52.8981835,165.013373 46.013373,171.898184 37.5509082,171.898184 C37.4668133,171.898184 37.387127,171.917013 37.3158346,171.950688 Z M41.5437352,156.168827 C42.3302286,155.512654 42.8342213,154.508286 42.8342213,153.38447 C42.8342213,151.412266 41.282104,149.807728 39.374334,149.807728 L39.3368127,149.807728 L39.3368127,148.563787 C39.3368127,148.252351 39.092706,148 38.7914447,148 C38.4901834,148 38.2460767,148.252351 38.2460767,148.563787 L38.2460767,149.807728 L37.0051826,149.807728 L37.0051826,148.563787 C37.0051826,148.252351 36.7610759,148 36.4598146,148 C36.1585534,148 35.9144466,148.252351 35.9144466,148.563787 L35.9144466,149.807728 L33.545368,149.807728 C33.2441067,149.807728 33,150.060079 33,150.371515 C33,150.682951 33.2441067,150.935302 33.545368,150.935302 L34.1657787,150.935302 L34.1657787,163.064623 L33.545368,163.064623 C33.2441067,163.064623 33,163.316974 33,163.62841 C33,163.939846 33.2441067,164.192197 33.545368,164.192197 L35.9144466,164.192197 L35.9144466,165.436138 C35.9144466,165.747574 36.1585534,165.999925 36.4598146,165.999925 C36.7610759,165.999925 37.0051826,165.747574 37.0051826,165.436138 L37.0051826,164.192197 L38.2460767,164.192197 L38.2460767,165.436138 C38.2460767,165.747574 38.4901834,166 38.7914447,166 C39.092706,166 39.3368127,165.747649 39.3368127,165.436213 L39.3368127,164.192272 L39.9572233,164.192272 C42.1863969,164.192272 44,162.317492 44,160.012955 C44,158.290321 42.9864881,156.807711 41.5437352,156.168827 Z M35,151 L39.4434817,151 C40.8531331,151 42,152.12153 42,153.500038 C42,154.878547 40.8531331,156 39.4434817,156 L35,156 L35,151 Z M39.914037,163 L35,163 L35,157 L39.914037,157 C41.6156229,157 43,158.345797 43,160.000037 C43,161.654203 41.6156229,163 39.914037,163 Z" id="Combined-Shape" fill-rule="nonzero" transform="translate(38.000000, 157.000000) rotate(-30.000000) translate(-38.000000, -157.000000) "></path>
                <g id="Group-3" transform="translate(41.000000, 103.000000)">
                    <path d="M39.4350781,12.5649219 C35.8464531,8.97637109 31.0750781,7 26,7 C20.9249219,7 16.1535469,8.97637109 12.5649219,12.5649219 C8.97629687,16.1534727 7,20.9249219 7,26 C7,31.0750781 8.97637109,35.8464531 12.5649219,39.4350781 C16.1534727,43.0237031 20.9249219,45 26,45 C31.0750781,45 35.8464531,43.0236289 39.4350781,39.4350781 C43.0237031,35.8465273 45,31.0750781 45,26 C45,20.9249219 43.0236289,16.1535469 39.4350781,12.5649219 Z M25.3158346,40.9506876 C25.1291349,41.0388736 25,41.228865 25,41.4490918 C25,41.7534135 25.2465865,42 25.5509082,42 C29.9445851,42 34.0753686,40.2890259 37.1821972,37.1821972 C40.2890259,34.0753686 42,29.9445851 42,25.5509082 C42,25.2465865 41.75334,25 41.4490918,25 C41.2288681,25 41.0388789,25.1291313 40.9506913,25.3158267 C40.9994882,25.9075675 41.0122932,26.505144 40.9880986,27.1056045 C40.8412413,30.7497875 39.339219,34.17795 36.7585314,36.7586422 C34.1778438,39.3392589 30.7496874,40.8413594 27.105511,40.988217 C26.9083672,40.9962205 26.7113745,41.0001468 26.5150614,40.9999958 C26.1132816,40.9999958 25.7132414,40.983458 25.3158346,40.9506876 Z M38.7279419,38.7279419 C35.3282573,42.1277012 30.8080166,44 26,44 C21.1919834,44 16.6717427,42.1277012 13.2720581,38.7279419 C9.87237344,35.3281826 8,30.8080166 8,26 C8,21.1919834 9.87229876,16.6717427 13.2720581,13.2720581 C16.6718174,9.87237344 21.1919834,8 26,8 C30.8080166,8 35.3282573,9.87229876 38.7279419,13.2720581 C42.1276266,16.6718174 44,21.1919834 44,26 C44,30.8080166 42.1277012,35.3282573 38.7279419,38.7279419 Z M25.4490918,9 C21.0554149,9 16.9246314,10.7109741 13.8178028,13.8178028 C10.7109741,16.9246314 9,21.0554149 9,25.4490918 C9,25.7534135 9.24658653,26 9.55090824,26 C9.85522996,26 10.1018165,25.7534135 10.1018165,25.4490918 C10.1018165,16.986627 16.986627,10.1018165 25.4490918,10.1018165 C25.7534135,10.1018165 26,9.85522996 26,9.55090824 C26,9.24658653 25.7534135,9 25.4490918,9 Z M35.7982624,15.3921482 C33.0338042,13.0664636 29.5149018,11.8651141 25.8944453,12.0120456 C22.2502804,12.158826 18.8221347,13.6609093 16.2414552,16.241572 C13.6608512,18.8222348 12.1588337,22.2503582 12.0119013,25.8944995 C11.8659505,29.5166691 13.0664017,33.0338876 15.3920259,35.7982524 C15.5039996,35.9314421 15.6642208,36 15.8256501,36 C15.9543104,36 16.0837256,35.9563585 16.1898854,35.8670369 C16.4292357,35.6656668 16.4599662,35.3085313 16.2586703,35.0691825 C14.1153903,32.5213642 13.0090936,29.2792834 13.1436432,25.9400286 C13.2789478,22.5811427 14.6635553,19.4212107 17.0424104,17.0424465 C19.42119,14.6636069 22.581067,13.2790084 25.9400502,13.1436291 C29.2786472,13.0094579 32.521353,14.1153699 35.0691878,16.258787 C35.3084626,16.4602326 35.6657515,16.4293513 35.8670473,16.1900026 C36.0683432,15.9506538 36.0376127,15.5935183 35.7982624,15.3921482 Z M25.3158346,40.9506876 C22.3379307,40.7051278 19.507888,39.5481033 17.2017382,37.6080002 C16.9623871,37.4066279 16.9316566,37.0494883 17.1329531,36.8101368 C17.3343251,36.5707853 17.6915395,36.5399037 17.9308151,36.7413516 C20.4785825,38.8847932 23.7199394,39.9920769 27.0599814,39.8564696 C30.4189752,39.7211642 33.5788622,38.3365499 35.9576492,35.9576831 C38.3365118,33.5788918 39.7211236,30.4189237 39.8565042,27.0599994 C39.9909787,23.720782 38.8846785,20.4785887 36.7413163,17.9308168 C36.5400198,17.6914653 36.5707503,17.3343257 36.8101014,17.1329533 C37.049528,16.9316565 37.4066669,16.9623871 37.6079634,17.2017385 C39.5480707,19.5078758 40.7051265,22.3379576 40.9506913,25.3158267 C40.9170146,25.3871212 40.8981835,25.4668102 40.8981835,25.5509082 C40.8981835,34.013373 34.013373,40.8981835 25.5509082,40.8981835 C25.4668133,40.8981835 25.387127,40.9170132 25.3158346,40.9506876 Z" id="Combined-Shape" fill-rule="nonzero" transform="translate(26.000000, 26.000000) rotate(-150.000000) translate(-26.000000, -26.000000) "></path>
                    <path d="M26.5,16 L32,25.4724693 L26.5,28.6609618 L21,25.4724693 L26.5,16 Z M26.5,29.5449575 L32,26.1174673 L26.5,34.0865058 L21,26.1174673 L26.5,29.5449575 Z" id="Combined-Shape" transform="translate(26.500000, 25.043253) rotate(-330.000000) translate(-26.500000, -25.043253) "></path>
                </g>
                <g id="Group-2" transform="translate(54.000000, 143.000000)">
                    <path d="M37.4350781,10.5649219 C33.8464531,6.97637109 29.0750781,5 24,5 C18.9249219,5 14.1535469,6.97637109 10.5649219,10.5649219 C6.97629688,14.1534727 5,18.9249219 5,24 C5,29.0750781 6.97637109,33.8464531 10.5649219,37.4350781 C14.1534727,41.0237031 18.9249219,43 24,43 C29.0750781,43 33.8464531,41.0236289 37.4350781,37.4350781 C41.0237031,33.8465273 43,29.0750781 43,24 C43,18.9249219 41.0236289,14.1535469 37.4350781,10.5649219 Z M23.3158346,38.9506876 C23.1291349,39.0388736 23,39.228865 23,39.4490918 C23,39.7534135 23.2465865,40 23.5509082,40 C27.9445851,40 32.0753686,38.2890259 35.1821972,35.1821972 C38.2890259,32.0753686 40,27.9445851 40,23.5509082 C40,23.2465865 39.75334,23 39.4490918,23 C39.2288681,23 39.0388789,23.1291313 38.9506913,23.3158267 C38.9994882,23.9075675 39.0122932,24.505144 38.9880986,25.1056045 C38.8412413,28.7497875 37.339219,32.17795 34.7585314,34.7586422 C32.1778438,37.3392589 28.7496874,38.8413594 25.105511,38.988217 C24.9083672,38.9962205 24.7113745,39.0001468 24.5150614,38.9999958 C24.1132816,38.9999958 23.7132414,38.983458 23.3158346,38.9506876 Z M36.7279419,36.7279419 C33.3282573,40.1277012 28.8080166,42 24,42 C19.1919834,42 14.6717427,40.1277012 11.2720581,36.7279419 C7.87237344,33.3281826 6,28.8080166 6,24 C6,19.1919834 7.87229876,14.6717427 11.2720581,11.2720581 C14.6718174,7.87237344 19.1919834,6 24,6 C28.8080166,6 33.3282573,7.87229876 36.7279419,11.2720581 C40.1276266,14.6718174 42,19.1919834 42,24 C42,28.8080166 40.1277012,33.3282573 36.7279419,36.7279419 Z M23.4490918,7 C19.0554149,7 14.9246314,8.71097409 11.8178028,11.8178028 C8.71097409,14.9246314 7,19.0554149 7,23.4490918 C7,23.7534135 7.24658653,24 7.55090824,24 C7.85522996,24 8.10181648,23.7534135 8.10181648,23.4490918 C8.10181648,14.986627 14.986627,8.10181648 23.4490918,8.10181648 C23.7534135,8.10181648 24,7.85522996 24,7.55090824 C24,7.24658653 23.7534135,7 23.4490918,7 Z M33.7982624,13.3921482 C31.0338042,11.0664636 27.5149018,9.86511413 23.8944453,10.0120456 C20.2502804,10.158826 16.8221347,11.6609093 14.2414552,14.241572 C11.6608512,16.8222348 10.1588337,20.2503582 10.0119013,23.8944995 C9.8659505,27.5166691 11.0664017,31.0338876 13.3920259,33.7982524 C13.5039996,33.9314421 13.6642208,34 13.8256501,34 C13.9543104,34 14.0837256,33.9563585 14.1898854,33.8670369 C14.4292357,33.6656668 14.4599662,33.3085313 14.2586703,33.0691825 C12.1153903,30.5213642 11.0090936,27.2792834 11.1436432,23.9400286 C11.2789478,20.5811427 12.6635553,17.4212107 15.0424104,15.0424465 C17.42119,12.6636069 20.581067,11.2790084 23.9400502,11.1436291 C27.2786472,11.0094579 30.521353,12.1153699 33.0691878,14.258787 C33.3084626,14.4602326 33.6657515,14.4293513 33.8670473,14.1900026 C34.0683432,13.9506538 34.0376127,13.5935183 33.7982624,13.3921482 Z M23.3158346,38.9506876 C20.3379307,38.7051278 17.507888,37.5481033 15.2017382,35.6080002 C14.9623871,35.4066279 14.9316566,35.0494883 15.1329531,34.8101368 C15.3343251,34.5707853 15.6915395,34.5399037 15.9308151,34.7413516 C18.4785825,36.8847932 21.7199394,37.9920769 25.0599814,37.8564696 C28.4189752,37.7211642 31.5788622,36.3365499 33.9576492,33.9576831 C36.3365118,31.5788918 37.7211236,28.4189237 37.8565042,25.0599994 C37.9909787,21.720782 36.8846785,18.4785887 34.7413163,15.9308168 C34.5400198,15.6914653 34.5707503,15.3343257 34.8101014,15.1329533 C35.049528,14.9316565 35.4066669,14.9623871 35.6079634,15.2017385 C37.5480707,17.5078758 38.7051265,20.3379576 38.9506913,23.3158267 C38.9170146,23.3871212 38.8981835,23.4668102 38.8981835,23.5509082 C38.8981835,32.013373 32.013373,38.8981835 23.5509082,38.8981835 C23.4668133,38.8981835 23.387127,38.9170132 23.3158346,38.9506876 Z" id="Combined-Shape" fill-rule="nonzero" transform="translate(24.000000, 24.000000) rotate(-285.000000) translate(-24.000000, -24.000000) "></path>
                    <path d="M20.1809992,26.1069177 L19.1891429,29.8 L28.1065714,29.8 L28.882,26.9342857 L23.2517143,26.9342857 L23.7301818,25.1484563 L27.1047755,24.2371429 L27.8802041,21.3714286 L24.4983343,22.2814082 L25.6454286,18 L22.3582857,18 L20.9521532,23.2356 L18.9304488,23.7795918 L18.1873469,26.6453061 L20.1809992,26.1069177 Z" id="Combined-Shape"></path>
                </g>
            </g>
        </g>
    </g>
</svg>