<?xml version="1.0" encoding="UTF-8"?>
<svg width="31px" height="27px" viewBox="0 0 31 27" version="1.1" xmlns="http://www.w3.org/2000/svg" xmlns:xlink="http://www.w3.org/1999/xlink">
    <!-- Generator: sketchtool 47 (45396) - http://www.bohemiancoding.com/sketch -->
    <title>DDB5CE65-9F0D-45B4-B3C1-B6FCA8868805</title>
    <desc>Created with sketchtool.</desc>
    <defs></defs>
    <g id="Page-1" stroke="none" stroke-width="1" fill="none" fill-rule="evenodd">
        <g id="Main-Copy" transform="translate(-990.000000, -700.000000)" fill="#23005C">
            <path d="M1013.4527,711.5 L992,711.5 L992,711.5 C990.895431,711.5 990,712.395431 990,713.5 C990,714.604569 990.895431,715.5 992,715.5 L1013.4527,715.5 L1004.95653,723.283053 C1004.18909,723.986454 1004.18909,725.126577 1004.95653,725.829635 C1005.72396,726.532979 1006.96872,726.532979 1007.73646,725.829635 L1019.80553,714.773049 C1020.18888,714.42169 1020.38095,713.960895 1020.38095,713.500043 C1020.38095,713.039361 1020.18931,712.578566 1019.80591,712.227036 L1007.73684,701.170621 C1006.96909,700.466936 1005.72433,700.466936 1004.9569,701.170621 C1004.18947,701.873623 1004.18947,703.013632 1004.9569,703.716975 L1013.4527,711.5 Z" id="Combined-Shape"></path>
        </g>
    </g>
</svg>