<svg xmlns="http://www.w3.org/2000/svg" width="147" height="147" viewBox="0 0 147 147">
    <g fill="none" fill-rule="evenodd">
        <circle cx="73.5" cy="73.5" r="73.5" fill="#7ED321"/>
        <path fill="#FFF" d="M42 110.765v-73.53h37.951c9.303 0 15.857 2.311 20.191 6.618 2.96 2.941 4.757 6.828 4.757 12.08 0 8.508-4.862 13.55-11.417 16.386 8.986 2.942 14.694 7.984 14.694 18.173 0 12.605-10.36 20.273-28.014 20.273H42zm19.98-16.387h15.857c6.237 0 9.831-2.416 9.831-6.933 0-3.991-3.171-6.617-10.043-6.617H61.98v13.55zm0-27.836v-12.92H75.3c6.131 0 9.302 2.31 9.302 6.302 0 4.517-3.488 6.618-9.725 6.618H61.98zM61.118 24h20.588v13.235H61.118V24zm0 86.765h20.588V124H61.118v-13.235z"/>
    </g>
</svg>
