<?xml version="1.0" encoding="UTF-8"?>
<svg width="10px" height="10px" viewBox="0 0 10 10" version="1.1" xmlns="http://www.w3.org/2000/svg" xmlns:xlink="http://www.w3.org/1999/xlink">
    <!-- Generator: sketchtool 47 (45396) - http://www.bohemiancoding.com/sketch -->
    <title>2FF55C2D-85BE-41BF-BF0E-D69299FE3E36</title>
    <desc>Created with sketchtool.</desc>
    <defs></defs>
    <g id="Page-1" stroke="none" stroke-width="1" fill="none" fill-rule="evenodd" opacity="0.5">
        <g id="shuffle" transform="translate(-368.000000, -510.000000)" fill-rule="nonzero" fill="#FFFFFF">
            <path d="M372.932829,510.000454 C370.171824,510.037408 367.963715,512.305839 368.000452,515.066952 C368.037406,517.82687 370.305619,520.035631 373.066515,519.998894 C375.826977,519.961723 378.03552,517.693293 377.998783,514.932396 C377.961829,512.172261 375.693508,509.963609 372.932829,510.000454 Z M372.918047,518.042943 L372.89044,518.042508 C372.465252,518.0299 372.16549,517.716661 372.177555,517.297777 C372.189402,516.886066 372.496446,516.587173 372.907613,516.587173 L372.932285,516.587608 C373.36932,516.600542 373.665713,516.910629 373.653431,517.341578 C373.641258,517.754484 373.338996,518.042943 372.918047,518.042943 Z M374.706511,514.493296 C374.606517,514.635352 374.386641,514.811753 374.109595,515.027607 L373.804508,515.238245 C373.637019,515.368453 373.535939,515.490945 373.498007,515.61148 C373.468118,515.706365 373.453445,515.731472 373.450836,515.924502 L373.450402,515.97352 L372.285482,515.97352 L372.288851,515.87494 C372.30309,515.469751 372.313089,515.231398 372.481012,515.034455 C372.744472,514.725128 373.325628,514.350915 373.3503,514.335046 C373.433555,514.272333 373.503767,514.200925 373.556046,514.124626 C373.678321,513.956051 373.732447,513.823343 373.732447,513.692917 C373.732447,513.511951 373.678755,513.344571 373.572567,513.19556 C373.470509,513.051765 373.276609,512.978944 372.996194,512.978944 C372.718061,512.978944 372.527639,513.067199 372.413734,513.248274 C372.296568,513.434456 372.237333,513.629986 372.237333,513.829755 L372.237333,513.879426 L371.03622,513.879426 L371.038394,513.827581 C371.06937,513.091871 371.331961,512.562125 371.818558,512.253016 C372.124298,512.056182 372.504706,511.956406 372.948588,511.956406 C373.529635,511.956406 374.020145,512.097592 374.406314,512.376051 C374.797591,512.658206 374.996056,513.080785 374.996056,513.632051 C374.996056,513.9404 374.898671,514.230054 374.706511,514.493296 Z" id="Shape"></path>
        </g>
    </g>
</svg>