<svg xmlns="http://www.w3.org/2000/svg" width="10" height="10" viewBox="0 0 10 10">
    <path fill="#FFF" fill-rule="nonzero" d="M4.933 0a5 5 0 1 0 .134 10 5 5 0 0 0-.134-10zm-.015 8.043H4.89c-.425-.013-.725-.326-.712-.745a.71.71 0 0 1 .73-.71h.024c.437.013.734.323.721.754-.012.412-.314.7-.735.7zm1.789-3.55c-.1.142-.32.319-.597.535l-.305.21c-.168.13-.27.253-.307.373-.03.095-.045.12-.047.314v.049H4.284l.004-.1c.014-.404.024-.643.192-.84.263-.309.845-.683.87-.699a.917.917 0 0 0 .205-.21c.122-.169.176-.302.176-.432a.841.841 0 0 0-.16-.497c-.101-.144-.295-.217-.576-.217-.278 0-.468.088-.582.27a1.082 1.082 0 0 0-.177.58v.05h-1.2l.001-.051c.031-.736.294-1.266.78-1.575.306-.197.687-.297 1.13-.297.582 0 1.072.142 1.458.42.392.282.59.705.59 1.256 0 .308-.097.598-.29.861z" opacity=".5"/>
</svg>
