<?xml version="1.0" encoding="UTF-8"?>
<svg width="80px" height="80px" viewBox="0 0 80 80" version="1.1" xmlns="http://www.w3.org/2000/svg" xmlns:xlink="http://www.w3.org/1999/xlink">
    <!-- Generator: sketchtool 47 (45396) - http://www.bohemiancoding.com/sketch -->
    <title>E235D0D7-3B14-44C6-AFB2-2B14F42F1949</title>
    <desc>Created with sketchtool.</desc>
    <defs></defs>
    <g id="Page-1" stroke="none" stroke-width="1" fill="none" fill-rule="evenodd">
        <g id="main-copy" transform="translate(-855.000000, -671.000000)" fill-rule="nonzero" fill="#23005C">
            <path d="M923.284219,682.715781 C915.729219,675.160625 905.684375,671 895,671 C884.315625,671 874.270781,675.160625 866.715781,682.715781 C859.160781,690.270781 855,700.315625 855,711 C855,721.684375 859.160781,731.729219 866.715781,739.284219 C874.270781,746.839375 884.315625,751 895,751 C905.684375,751 915.729219,746.839375 923.284219,739.284219 C930.839219,731.729219 935,721.684375 935,711 C935,700.315625 930.839219,690.270781 923.284219,682.715781 Z M921.512969,737.512812 C914.430938,744.594531 905.015156,748.494844 895,748.494844 C884.984844,748.494844 875.569062,744.594531 868.487031,737.512812 C861.405313,730.430938 857.505156,721.015156 857.505156,711 C857.505156,700.984844 861.405313,691.569062 868.487031,684.487188 C875.569062,677.405469 884.984844,673.505156 895,673.505156 C905.015156,673.505156 914.430938,677.405469 921.512969,684.487188 C928.594687,691.568906 932.494844,700.984687 932.494844,711 C932.494844,721.015313 928.594687,730.430938 921.512969,737.512812 Z M903.985781,709.156562 C905.787344,707.701094 906.941563,705.474375 906.941563,702.983437 C906.941563,698.609219 903.382656,695.050312 899.008438,695.050312 L897.58875,695.050312 L897.58875,692.294531 C897.58875,691.602656 897.027969,691.041875 896.336094,691.041875 C895.644219,691.041875 895.083437,691.6025 895.083437,692.294531 L895.083437,695.050312 L892.244219,695.050312 L892.244219,692.294531 C892.244219,691.602656 891.683437,691.041875 890.991562,691.041875 C890.299688,691.041875 889.738906,691.6025 889.738906,692.294531 L889.738906,695.050312 L884.310938,695.050312 C883.619219,695.050312 883.058281,695.610937 883.058281,696.302969 C883.058281,696.994844 883.619063,697.555625 884.310938,697.555625 L885.730625,697.555625 L885.730625,724.445 L884.310938,724.445 C883.619219,724.445 883.058281,725.005625 883.058281,725.697656 C883.058281,726.389531 883.619063,726.950312 884.310938,726.950312 L889.738906,726.950312 L889.738906,729.706094 C889.738906,730.397969 890.299688,730.95875 890.991562,730.95875 C891.683437,730.95875 892.244219,730.398125 892.244219,729.706094 L892.244219,726.950312 L895.083437,726.950312 L895.083437,729.706094 C895.083437,730.397969 895.644219,730.95875 896.336094,730.95875 C897.027969,730.95875 897.58875,730.398125 897.58875,729.706094 L897.58875,726.950312 L900.344531,726.950312 C905.455625,726.950312 909.613906,722.792187 909.613906,717.680937 C909.61375,713.86125 907.292031,710.574062 903.985781,709.156562 Z M888.235937,697.555313 L899.008437,697.555313 C902.001406,697.555313 904.436406,699.990156 904.436406,702.983281 C904.436406,705.976406 902.001406,708.41125 899.008437,708.41125 L888.235937,708.41125 L888.235937,697.555313 Z M900.344531,724.444687 L888.235937,724.444687 L888.235937,710.916562 L900.344531,710.916562 C904.074375,710.916562 907.108594,713.950937 907.108594,717.680625 C907.108594,721.410312 904.074219,724.444687 900.344531,724.444687 Z" id="Combined-Shape"></path>
        </g>
    </g>
</svg>