<?xml version="1.0" encoding="UTF-8"?>
<svg width="80px" height="80px" viewBox="0 0 80 80" version="1.1" xmlns="http://www.w3.org/2000/svg" xmlns:xlink="http://www.w3.org/1999/xlink">
    <!-- Generator: sketchtool 47 (45396) - http://www.bohemiancoding.com/sketch -->
    <title>6FB1DF34-B1A5-40D3-BABA-CB957296ACDB</title>
    <desc>Created with sketchtool.</desc>
    <defs></defs>
    <g id="Page-1" stroke="none" stroke-width="1" fill="none" fill-rule="evenodd">
        <g id="main-copy" transform="translate(-1030.000000, -671.000000)" fill-rule="nonzero" fill="#23005C">
            <path d="M1070,671 C1047.94308,671 1030,688.943077 1030,711 C1030,733.056923 1047.94308,751 1070,751 C1092.05692,751 1110,733.056923 1110,711 C1110,688.943077 1092.05692,671 1070,671 Z M1070,747.923077 C1049.64154,747.923077 1033.07692,731.358462 1033.07692,711 C1033.07692,690.641538 1049.64154,674.076923 1070,674.076923 C1090.35846,674.076923 1106.92308,690.641538 1106.92308,711 C1106.92308,731.358462 1090.35846,747.923077 1070,747.923077 Z M1070,727.923077 C1069.14923,727.923077 1068.46154,728.610769 1068.46154,729.461538 L1068.46154,732.538462 C1068.46154,733.389231 1069.14923,734.076923 1070,734.076923 C1070.85077,734.076923 1071.53846,733.389231 1071.53846,732.538462 L1071.53846,729.461538 C1071.53846,728.610769 1070.85077,727.923077 1070,727.923077 Z M1070.17385,684.847692 C1070.11538,684.847692 1070.05692,684.846154 1069.99692,684.846154 C1066.74154,684.846154 1063.68,686.1 1061.35846,688.390769 C1058.99538,690.721538 1057.69231,693.833846 1057.69231,697.153846 C1057.69231,698.004615 1058.38,698.692308 1059.23077,698.692308 C1060.08154,698.692308 1060.76923,698.004615 1060.76923,697.153846 C1060.76923,694.664615 1061.74615,692.329231 1063.51846,690.581538 C1065.29231,688.832308 1067.65385,687.866154 1070.13231,687.924615 C1074.99538,687.992308 1079.16154,692.158462 1079.22923,697.021538 C1079.27385,700.227692 1077.69231,703.178462 1074.99692,704.916923 C1070.90462,707.556923 1068.46154,712.221538 1068.46154,717.396923 L1068.46154,721.769231 C1068.46154,722.62 1069.14923,723.307692 1070,723.307692 C1070.85077,723.307692 1071.53846,722.62 1071.53846,721.769231 L1071.53846,717.396923 C1071.53846,713.332308 1073.50154,709.543077 1076.66462,707.501538 C1080.25692,705.184615 1082.36615,701.250769 1082.30615,696.978462 C1082.21385,690.383077 1076.77077,684.94 1070.17385,684.847692 Z" id="Combined-Shape"></path>
        </g>
    </g>
</svg>