<?xml version="1.0" encoding="UTF-8"?>
<svg width="80px" height="80px" viewBox="0 0 80 80" version="1.1" xmlns="http://www.w3.org/2000/svg" xmlns:xlink="http://www.w3.org/1999/xlink">
    <!-- Generator: sketchtool 47 (45396) - http://www.bohemiancoding.com/sketch -->
    <title>4CDD0BF9-CE6D-400E-9467-AF2577EC3AE9</title>
    <desc>Created with sketchtool.</desc>
    <defs></defs>
    <g id="Page-1" stroke="none" stroke-width="1" fill="none" fill-rule="evenodd">
        <g id="main-copy" transform="translate(-505.000000, -671.000000)" fill-rule="nonzero" fill="#23005C">
            <path d="M573.284219,682.715781 C565.729219,675.160625 555.684375,671 545,671 C534.315625,671 524.270781,675.160625 516.715781,682.715781 C509.160781,690.270781 505,700.315625 505,711 C505,721.684375 509.160781,731.729219 516.715781,739.284219 C524.270781,746.839375 534.315625,751 545,751 C555.684375,751 565.729219,746.839375 573.284219,739.284219 C580.839219,731.729219 585,721.684375 585,711 C585,700.315625 580.839219,690.270781 573.284219,682.715781 Z M571.512969,737.512812 C564.430938,744.594531 555.015156,748.494844 545,748.494844 C534.984844,748.494844 525.569062,744.594531 518.487031,737.512812 C511.405312,730.430938 507.505156,721.015156 507.505156,711 C507.505156,700.984844 511.405312,691.569062 518.487031,684.487188 C525.569062,677.405469 534.984844,673.505156 545,673.505156 C555.015156,673.505156 564.430938,677.405469 571.512969,684.487188 C578.594687,691.568906 582.494844,700.984687 582.494844,711 C582.494844,721.015313 578.594687,730.430938 571.512969,737.512812 Z M553.985781,709.156562 C555.787344,707.701094 556.941563,705.474375 556.941563,702.983437 C556.941563,698.609219 553.382656,695.050312 549.008438,695.050312 L547.58875,695.050312 L547.58875,692.294531 C547.58875,691.602656 547.027969,691.041875 546.336094,691.041875 C545.644219,691.041875 545.083437,691.6025 545.083437,692.294531 L545.083437,695.050312 L542.244219,695.050312 L542.244219,692.294531 C542.244219,691.602656 541.683437,691.041875 540.991562,691.041875 C540.299688,691.041875 539.738906,691.6025 539.738906,692.294531 L539.738906,695.050312 L534.310938,695.050312 C533.619219,695.050312 533.058281,695.610937 533.058281,696.302969 C533.058281,696.994844 533.619063,697.555625 534.310938,697.555625 L535.730625,697.555625 L535.730625,724.445 L534.310938,724.445 C533.619219,724.445 533.058281,725.005625 533.058281,725.697656 C533.058281,726.389531 533.619063,726.950312 534.310938,726.950312 L539.738906,726.950312 L539.738906,729.706094 C539.738906,730.397969 540.299688,730.95875 540.991562,730.95875 C541.683437,730.95875 542.244219,730.398125 542.244219,729.706094 L542.244219,726.950312 L545.083437,726.950312 L545.083437,729.706094 C545.083437,730.397969 545.644219,730.95875 546.336094,730.95875 C547.027969,730.95875 547.58875,730.398125 547.58875,729.706094 L547.58875,726.950312 L550.344531,726.950312 C555.455625,726.950312 559.613906,722.792187 559.613906,717.680937 C559.61375,713.86125 557.292031,710.574062 553.985781,709.156562 Z M538.235937,697.555313 L549.008437,697.555313 C552.001406,697.555313 554.436406,699.990156 554.436406,702.983281 C554.436406,705.976406 552.001406,708.41125 549.008437,708.41125 L538.235937,708.41125 L538.235937,697.555313 Z M550.344531,724.444687 L538.235937,724.444687 L538.235937,710.916562 L550.344531,710.916562 C554.074375,710.916562 557.108594,713.950937 557.108594,717.680625 C557.108594,721.410312 554.074219,724.444687 550.344531,724.444687 Z" id="Combined-Shape"></path>
        </g>
    </g>
</svg>