<?xml version="1.0" encoding="UTF-8"?>
<svg width="80px" height="80px" viewBox="0 0 80 80" version="1.1" xmlns="http://www.w3.org/2000/svg" xmlns:xlink="http://www.w3.org/1999/xlink">
    <!-- Generator: sketchtool 47 (45396) - http://www.bohemiancoding.com/sketch -->
    <title>6213DAAB-40CA-492D-98AF-C2A5DF4D4358</title>
    <desc>Created with sketchtool.</desc>
    <defs></defs>
    <g id="Page-1" stroke="none" stroke-width="1" fill="none" fill-rule="evenodd">
        <g id="main-copy" transform="translate(-680.000000, -671.000000)" fill-rule="nonzero" fill="#23005C">
            <path d="M720,671 C742.056,671 760,688.944 760,711 C760,733.056 742.056,751 720,751 C697.944,751 680,733.056 680,711 C680,688.944 697.944,671 720,671 Z M694.666667,696.333333 C693.929333,696.333333 693.333333,695.737333 693.333333,695 C693.333333,694.262667 693.929333,693.666667 694.666667,693.666667 L697.333333,693.666667 C701.608,693.666667 705.713333,695.233333 708.893333,698.078667 C709.441333,698.569333 709.488,699.412 708.997333,699.961333 C708.734667,700.256 708.369333,700.405333 708.004,700.405333 C707.688,700.405333 707.369333,700.293333 707.114667,700.065333 C704.424,697.658667 700.950667,696.333333 697.333333,696.333333 L694.666667,696.333333 Z M728.254667,683.549333 C728.688,682.952 729.52,682.821333 730.117333,683.254667 L746.266667,695 L730.117333,706.744 C729.88,706.914667 729.606667,706.998667 729.334667,706.998667 C728.921333,706.998667 728.514667,706.809333 728.254667,706.449333 C727.821333,705.854667 727.953333,705.02 728.549333,704.588 L739.9,696.333333 L729.333333,696.333333 C721.246667,696.333333 714.666667,702.913333 714.666667,711 C714.666667,720.557333 706.890667,728.333333 697.333333,728.333333 L694.666667,728.333333 C693.929333,728.333333 693.333333,727.737333 693.333333,727 C693.333333,726.262667 693.929333,725.666667 694.666667,725.666667 L697.333333,725.666667 C705.42,725.666667 712,719.086667 712,711 C712,701.442667 719.776,693.666667 729.333333,693.666667 L739.9,693.666667 L728.549333,685.410667 C727.952,684.978667 727.821333,684.144 728.254667,683.549333 Z M728.254667,715.549333 C728.688,714.952 729.52,714.821333 730.117333,715.254667 L746.266667,727 L730.117333,738.744 C729.88,738.914667 729.606667,738.998667 729.334667,738.998667 C728.921333,738.998667 728.514667,738.809333 728.254667,738.449333 C727.821333,737.854667 727.953333,737.02 728.549333,736.588 L739.9,728.333333 L729.333333,728.333333 C725.104,728.333333 721.030667,726.796 717.866667,724.002667 C717.313333,723.516 717.261333,722.673333 717.748,722.121333 C718.237333,721.568 719.081333,721.516 719.629333,722.002667 C722.306667,724.365333 725.753333,725.666667 729.333333,725.666667 L739.9,725.666667 L728.549333,717.410667 C727.952,716.978667 727.821333,716.144 728.254667,715.549333 Z M720,748.333333 C740.585333,748.333333 757.333333,731.585333 757.333333,711 C757.333333,690.414667 740.585333,673.666667 720,673.666667 C699.414667,673.666667 682.666667,690.414667 682.666667,711 C682.666667,731.585333 699.414667,748.333333 720,748.333333 Z" id="Combined-Shape"></path>
        </g>
    </g>
</svg>