<?xml version="1.0" encoding="UTF-8"?>
<svg width="80px" height="80px" viewBox="0 0 80 80" version="1.1" xmlns="http://www.w3.org/2000/svg" xmlns:xlink="http://www.w3.org/1999/xlink">
    <!-- Generator: sketchtool 47 (45396) - http://www.bohemiancoding.com/sketch -->
    <title>4B71276E-B221-4E76-9F95-E8AC5B06D6B3</title>
    <desc>Created with sketchtool.</desc>
    <defs></defs>
    <g id="Page-1" stroke="none" stroke-width="1" fill="none" fill-rule="evenodd">
        <g id="main-copy" transform="translate(-330.000000, -671.000000)" fill-rule="nonzero" fill="#23005C">
            <path d="M410,711 C410,688.944727 392.055273,671 370,671 C347.944727,671 330,688.944727 330,711 C330,722.649455 335.009455,733.149818 342.983273,740.466182 L342.945455,740.499636 L344.242909,741.593455 C344.327273,741.664727 344.418909,741.722909 344.503273,741.792727 C345.192727,742.364364 345.906909,742.906909 346.634182,743.432 C346.869818,743.602182 347.105455,743.772364 347.345455,743.938182 C348.122182,744.473455 348.919273,744.981091 349.733818,745.462545 C349.911273,745.567273 350.090182,745.669091 350.269091,745.770909 C351.160727,746.278545 352.071273,746.757091 353.003636,747.196364 C353.072,747.228364 353.141818,747.257455 353.210182,747.289455 C356.248727,748.701818 359.492364,749.738909 362.884364,750.351273 C362.973091,750.367273 363.061818,750.383273 363.152,750.399273 C364.205091,750.581091 365.269818,750.726545 366.347636,750.824 C366.478545,750.835636 366.609455,750.842909 366.741818,750.854545 C367.815273,750.943273 368.900364,751 370,751 C371.089455,751 372.164364,750.943273 373.232,750.857455 C373.367273,750.845818 373.502545,750.838545 373.637818,750.826909 C374.706909,750.729455 375.762909,750.588364 376.805818,750.409455 C376.896,750.393455 376.987636,750.377455 377.077818,750.36 C380.418909,749.760727 383.616,748.746909 386.615273,747.370909 C386.725818,747.32 386.837818,747.272 386.948364,747.219636 C387.845818,746.797818 388.722909,746.342545 389.582545,745.858182 C389.796364,745.737455 390.008727,745.615273 390.221091,745.490182 C391.003636,745.029091 391.773091,744.547636 392.520727,744.035636 C392.789818,743.852364 393.053091,743.658909 393.319273,743.466909 C393.957818,743.007273 394.584727,742.533091 395.194182,742.037091 C395.329455,741.928 395.474909,741.833455 395.607273,741.721455 L396.938182,740.610182 L396.898909,740.576727 C404.942545,733.257455 410,722.709091 410,711 Z M332.909091,711 C332.909091,690.547636 349.547636,673.909091 370,673.909091 C390.452364,673.909091 407.090909,690.547636 407.090909,711 C407.090909,722.021091 402.254545,731.929455 394.597818,738.728 C394.170182,738.432727 393.739636,738.168 393.298909,737.946909 L380.983273,731.789818 C379.877818,731.237091 379.191273,730.125818 379.191273,728.890909 L379.191273,724.589818 C379.476364,724.237818 379.777455,723.839273 380.088727,723.401455 C381.682909,721.149818 382.961455,718.645091 383.893818,715.949818 C385.736727,715.074182 386.926545,713.238545 386.926545,711.165818 L386.926545,706.009455 C386.926545,704.748364 386.464,703.525091 385.636364,702.563636 L385.636364,695.775273 C385.712,695.020364 385.979636,690.76 382.897455,687.245818 C380.216727,684.185455 375.877818,682.636364 370,682.636364 C364.122182,682.636364 359.783273,684.185455 357.102545,687.244364 C354.020364,690.758545 354.288,695.018909 354.363636,695.773818 L354.363636,702.562182 C353.537455,703.523636 353.073455,704.746909 353.073455,706.008 L353.073455,711.164364 C353.073455,712.765818 353.792,714.259636 355.022545,715.267636 C356.200727,719.882909 358.625455,723.376727 359.521455,724.560727 L359.521455,728.770182 C359.521455,729.957091 358.874182,731.048 357.831273,731.618182 L346.330182,737.891636 C345.963636,738.090909 345.6,738.323636 345.236364,738.584 C337.674182,731.788364 332.909091,721.941091 332.909091,711 Z M391.758545,741.010182 C391.249455,741.379636 390.731636,741.737455 390.206545,742.079273 C389.965091,742.236364 389.725091,742.393455 389.479273,742.546182 C388.792727,742.970909 388.094545,743.375273 387.381818,743.753455 C387.224727,743.836364 387.066182,743.914909 386.907636,743.996364 C385.269818,744.835636 383.575273,745.557091 381.834182,746.143273 C381.773091,746.163636 381.712,746.185455 381.649455,746.205818 C380.737455,746.508364 379.813818,746.777455 378.88,747.008727 C378.877091,747.008727 378.874182,747.010182 378.871273,747.010182 C377.928727,747.242909 376.974545,747.436364 376.014545,747.594909 C375.988364,747.599273 375.962182,747.605091 375.936,747.609455 C375.032727,747.756364 374.122182,747.862545 373.208727,747.942545 C373.047273,747.957091 372.885818,747.967273 372.722909,747.978909 C371.819636,748.047273 370.912,748.090909 370,748.090909 C369.077818,748.090909 368.158545,748.045818 367.243636,747.977455 C367.085091,747.965818 366.926545,747.955636 366.769455,747.941091 C365.847273,747.859636 364.929455,747.750545 364.020364,747.602182 C363.979636,747.594909 363.938909,747.587636 363.898182,747.580364 C361.975273,747.258909 360.082909,746.786182 358.24,746.168 C358.183273,746.149091 358.125091,746.128727 358.068364,746.109818 C357.153455,745.798545 356.248727,745.453818 355.36,745.072727 C355.354182,745.069818 355.346909,745.066909 355.341091,745.064 C354.500364,744.701818 353.675636,744.300364 352.861091,743.877091 C352.754909,743.821818 352.647273,743.769455 352.542545,743.712727 C351.799273,743.315636 351.072,742.886545 350.354909,742.438545 C350.142545,742.304727 349.931636,742.169455 349.722182,742.032727 C349.061818,741.600727 348.410182,741.151273 347.776,740.675636 C347.710545,740.626182 347.648,740.573818 347.582545,740.524364 C347.629091,740.498182 347.675636,740.472 347.722182,740.445818 L359.223273,734.172364 C361.201455,733.093091 362.430545,731.023273 362.430545,728.770182 L362.429091,723.530909 L362.094545,723.126545 C362.062545,723.090182 358.917818,719.264727 357.729455,714.085091 L357.597091,713.509091 L357.101091,713.187636 C356.401455,712.735273 355.982545,711.978909 355.982545,711.162909 L355.982545,706.006545 C355.982545,705.330182 356.269091,704.700364 356.792727,704.227636 L357.272727,703.794182 L357.272727,695.692364 L357.259636,695.501818 C357.255273,695.466909 356.826182,691.968727 359.290182,689.16 C361.393455,686.762909 364.997818,685.545455 370,685.545455 C374.983273,685.545455 378.576,686.752727 380.685091,689.132364 C383.146182,691.912 382.743273,695.475636 382.740364,695.504727 L382.727273,703.797091 L383.207273,704.230545 C383.729455,704.701818 384.017455,705.333091 384.017455,706.009455 L384.017455,711.165818 C384.017455,712.202909 383.312,713.144 382.299636,713.456727 L381.576727,713.679273 L381.344,714.399273 C380.485818,717.065455 379.264,719.528 377.713455,721.718545 C377.332364,722.256727 376.961455,722.733818 376.642909,723.098909 L376.282182,723.510545 L376.282182,728.890909 C376.282182,731.235636 377.585455,733.344727 379.682909,734.392 L391.998545,740.549091 C392.077091,740.588364 392.154182,740.629091 392.231273,740.669818 C392.075636,740.787636 391.915636,740.896727 391.758545,741.010182 Z" id="Shape"></path>
        </g>
    </g>
</svg>